<?xml version="1.0" encoding="utf-8"?><!DOCTYPE svg PUBLIC "-//W3C//DTD SVG 1.1//EN" "http://www.w3.org/Graphics/SVG/1.1/DTD/svg11.dtd"><svg version="1.1" xmlns="http://www.w3.org/2000/svg" width="248" height="373" viewBox="0 0 248 373"><g><g><rect fill="#FFFFFF" width="0" height="0" /></g><g transform="translate(0,0)"><path fill="#e0000e" d="M169 61L169 61L178 73L178 82L175 85L175 88L178 88L202 70L211 70L217 76Q210 87 166 109L166 109L139 160L142 160L160 142L163 145L166 145L190 124L193 127L193 130Q193 145 169 157L169 157L169 229L166 241L169 244L169 247Q163 265 157 265L157 265L151 265Q140 253 97 253L97 253L55 289L43 292L28 292L13 277L13 268L19 262L31 265Q75 247 118 211L118 211L124 211L124 214L103 241Q148 241 148 223L148 223L154 178L145 175L130 184L127 184Q118 181 118 166L118 166Q142 121 142 112L142 112L136 112L136 109Q154 97 160 73L160 73Q162 61 169 61ZM196 193L205 190Q235 198 235 220L235 220L214 232L205 232L199 226L205 214L202 211L202 208L205 205L205 202L196 193Z"/></g></g></svg>